<?xml version="1.0" encoding="UTF-8"?>
<!DOCTYPE svg PUBLIC "-//W3C//DTD SVG 1.1//EN" "http://www.w3.org/Graphics/SVG/1.1/DTD/svg11.dtd">
<svg version="1.1" xmlns="http://www.w3.org/2000/svg" xmlns:xlink="http://www.w3.org/1999/xlink" x="0" y="0" width="600" height="300" viewBox="0, 0, 600, 300">
  <g id="Background">
    <rect x="0" y="0" width="600" height="300" fill="#000000" fill-opacity="0"/>
  </g>
  <g id="Layer_1">
    <g>
      <path d="M30.5,270.5 L30.5,27.3" fill-opacity="0" stroke="#294270" stroke-width="2"/>
      <path d="M34.1,27.3 L30.5,17.7 L26.9,27.3 z" fill="#294270" fill-opacity="1" stroke="#294270" stroke-width="2" stroke-opacity="1"/>
    </g>
    <g>
      <path d="M30.5,270.5 L273.7,270.5" fill-opacity="0" stroke="#294270" stroke-width="2"/>
      <path d="M273.7,274.1 L283.3,270.5 L273.7,266.9 z" fill="#294270" fill-opacity="1" stroke="#294270" stroke-width="2" stroke-opacity="1"/>
    </g>
    <g>
      <path d="M330.5,270.5 L330.5,27.3" fill-opacity="0" stroke="#294270" stroke-width="2"/>
      <path d="M334.1,27.3 L330.5,17.7 L326.9,27.3 z" fill="#294270" fill-opacity="1" stroke="#294270" stroke-width="2" stroke-opacity="1"/>
    </g>
    <g>
      <path d="M330.5,270.5 L573.7,270.5" fill-opacity="0" stroke="#294270" stroke-width="2"/>
      <path d="M573.7,274.1 L583.3,270.5 L573.7,266.9 z" fill="#294270" fill-opacity="1" stroke="#294270" stroke-width="2" stroke-opacity="1"/>
    </g>
    <g>
      <path d="M60.5,120.5 L90.5,240.5 L240.5,210.5 L240.5,60.5 L180.5,60.5 L60.5,120.5" fill="#8FC7ED"/>
      <path d="M60.5,120.5 L90.5,240.5 L240.5,210.5 L240.5,60.5 L180.5,60.5 L60.5,120.5" fill-opacity="0" stroke="#294270" stroke-width="2"/>
    </g>
    <g>
      <path d="M390.5,210.5 L390.5,60.5 L540.5,60.5 L540.5,120.5 L450.5,120.5 L450.5,180.5 L540.5,180.5 L540.5,210.5 L390.5,210.5 z" fill="#8FC7ED"/>
      <path d="M390.5,210.5 L390.5,60.5 L540.5,60.5 L540.5,120.5 L450.5,120.5 L450.5,180.5 L540.5,180.5 L540.5,210.5 L390.5,210.5 z" fill-opacity="0" stroke="#294270" stroke-width="2"/>
    </g>
    <path d="M60,125 C57.239,125 55,122.761 55,120 C55,117.239 57.239,115 60,115 C62.761,115 65,117.239 65,120 C65,122.761 62.761,125 60,125 z" fill="#294270"/>
    <path d="M540,125 C537.239,125 535,122.761 535,120 C535,117.239 537.239,115 540,115 C542.761,115 545,117.239 545,120 C545,122.761 542.761,125 540,125 z" fill="#294270"/>
    <path d="M540,65 C537.239,65 535,62.761 535,60 C535,57.239 537.239,55 540,55 C542.761,55 545,57.239 545,60 C545,62.761 542.761,65 540,65 z" fill="#294270"/>
    <path d="M390,65 C387.239,65 385,62.761 385,60 C385,57.239 387.239,55 390,55 C392.761,55 395,57.239 395,60 C395,62.761 392.761,65 390,65 z" fill="#294270"/>
    <path d="M390,215 C387.239,215 385,212.761 385,210 C385,207.239 387.239,205 390,205 C392.761,205 395,207.239 395,210 C395,212.761 392.761,215 390,215 z" fill="#294270"/>
    <g>
      <path d="M90.5,65.5 C87.739,65.5 85.5,63.261 85.5,60.5 C85.5,57.739 87.739,55.5 90.5,55.5 C93.261,55.5 95.5,57.739 95.5,60.5 C95.5,63.261 93.261,65.5 90.5,65.5 z" fill="#FDBC00"/>
      <path d="M90.5,65.5 C87.739,65.5 85.5,63.261 85.5,60.5 C85.5,57.739 87.739,55.5 90.5,55.5 C93.261,55.5 95.5,57.739 95.5,60.5 C95.5,63.261 93.261,65.5 90.5,65.5 z" fill-opacity="0" stroke="#F0801A" stroke-width="2"/>
    </g>
    <path d="M90,245 C87.239,245 85,242.761 85,240 C85,237.239 87.239,235 90,235 C92.761,235 95,237.239 95,240 C95,242.761 92.761,245 90,245 z" fill="#294270"/>
    <path d="M240,215 C237.239,215 235,212.761 235,210 C235,207.239 237.239,205 240,205 C242.761,205 245,207.239 245,210 C245,212.761 242.761,215 240,215 z" fill="#294270"/>
    <path d="M240,65 C237.239,65 235,62.761 235,60 C235,57.239 237.239,55 240,55 C242.761,55 245,57.239 245,60 C245,62.761 242.761,65 240,65 z" fill="#294270"/>
    <path d="M180,65 C177.239,65 175,62.761 175,60 C175,57.239 177.239,55 180,55 C182.761,55 185,57.239 185,60 C185,62.761 182.761,65 180,65 z" fill="#294270"/>
    <path d="M540,185 C537.239,185 535,182.761 535,180 C535,177.239 537.239,175 540,175 C542.761,175 545,177.239 545,180 C545,182.761 542.761,185 540,185 z" fill="#294270"/>
    <path d="M450,185 C447.239,185 445,182.761 445,180 C445,177.239 447.239,175 450,175 C452.761,175 455,177.239 455,180 C455,182.761 452.761,185 450,185 z" fill="#294270"/>
    <path d="M450,125 C447.239,125 445,122.761 445,120 C445,117.239 447.239,115 450,115 C452.761,115 455,117.239 455,120 C455,122.761 452.761,125 450,125 z" fill="#294270"/>
    <path d="M540,215 C537.239,215 535,212.761 535,210 C535,207.239 537.239,205 540,205 C542.761,205 545,207.239 545,210 C545,212.761 542.761,215 540,215 z" fill="#294270"/>
    <g>
      <path d="M450.5,155.5 C447.739,155.5 445.5,153.261 445.5,150.5 C445.5,147.739 447.739,145.5 450.5,145.5 C453.261,145.5 455.5,147.739 455.5,150.5 C455.5,153.261 453.261,155.5 450.5,155.5 z" fill="#FDBC00"/>
      <path d="M450.5,155.5 C447.739,155.5 445.5,153.261 445.5,150.5 C445.5,147.739 447.739,145.5 450.5,145.5 C453.261,145.5 455.5,147.739 455.5,150.5 C455.5,153.261 453.261,155.5 450.5,155.5 z" fill-opacity="0" stroke="#F0801A" stroke-width="2"/>
    </g>
  </g>
</svg>
