<?xml version="1.0" encoding="UTF-8"?>
<!DOCTYPE svg PUBLIC "-//W3C//DTD SVG 1.1//EN" "http://www.w3.org/Graphics/SVG/1.1/DTD/svg11.dtd">
<svg version="1.1" xmlns="http://www.w3.org/2000/svg" xmlns:xlink="http://www.w3.org/1999/xlink" x="0" y="0" width="390" height="190" viewBox="0, 0, 390, 190">
  <g id="Background">
    <rect x="0" y="0" width="390" height="190" fill="#000000" fill-opacity="0"/>
  </g>
  <g id="Layer_1">
    <g>
      <path d="M15.5,180.5 L15.5,20.1" fill-opacity="0" stroke="#294270" stroke-width="1.333"/>
      <path d="M18.7,20.1 L15.5,11.567 L12.3,20.1 z" fill="#294270" fill-opacity="1" stroke="#294270" stroke-width="1.333" stroke-opacity="1"/>
    </g>
    <g>
      <path d="M15.5,180.5 L175.9,180.5" fill-opacity="0" stroke="#294270" stroke-width="1.333"/>
      <path d="M175.9,183.7 L184.433,180.5 L175.9,177.3 z" fill="#294270" fill-opacity="1" stroke="#294270" stroke-width="1.333" stroke-opacity="1"/>
    </g>
    <g>
      <path d="M215.5,180.5 L215.5,20.1" fill-opacity="0" stroke="#294270" stroke-width="1.333"/>
      <path d="M218.7,20.1 L215.5,11.567 L212.3,20.1 z" fill="#294270" fill-opacity="1" stroke="#294270" stroke-width="1.333" stroke-opacity="1"/>
    </g>
    <g>
      <path d="M215.5,180.5 L375.9,180.5" fill-opacity="0" stroke="#294270" stroke-width="1.333"/>
      <path d="M375.9,183.7 L384.433,180.5 L375.9,177.3 z" fill="#294270" fill-opacity="1" stroke="#294270" stroke-width="1.333" stroke-opacity="1"/>
    </g>
    <g>
      <path d="M35.5,80.5 L55.5,160.5 L165.5,150.5 L155.5,40.5 L115.5,40.5 L35.5,80.5" fill="#8FC7ED"/>
      <path d="M35.5,80.5 L55.5,160.5 L165.5,150.5 L155.5,40.5 L115.5,40.5 L35.5,80.5" fill-opacity="0" stroke="#294270" stroke-width="1.333"/>
    </g>
    <g>
      <path d="M255.5,140.5 L255.5,40.5 L355.5,40.5 L355.5,80.5 L295.5,80.5 L295.5,120.5 L355.5,120.5 L355.5,140.5 L255.5,140.5 z" fill="#8FC7ED"/>
      <path d="M255.5,140.5 L255.5,40.5 L355.5,40.5 L355.5,80.5 L295.5,80.5 L295.5,120.5 L355.5,120.5 L355.5,140.5 L255.5,140.5 z" fill-opacity="0" stroke="#294270" stroke-width="1.333"/>
    </g>
    <path d="M35,83.333 C33.159,83.333 31.667,81.841 31.667,80 C31.667,78.159 33.159,76.667 35,76.667 C36.841,76.667 38.333,78.159 38.333,80 C38.333,81.841 36.841,83.333 35,83.333 z" fill="#294270"/>
    <path d="M355,83.333 C353.159,83.333 351.667,81.841 351.667,80 C351.667,78.159 353.159,76.667 355,76.667 C356.841,76.667 358.333,78.159 358.333,80 C358.333,81.841 356.841,83.333 355,83.333 z" fill="#294270"/>
    <path d="M355,43.333 C353.159,43.333 351.667,41.841 351.667,40 C351.667,38.159 353.159,36.667 355,36.667 C356.841,36.667 358.333,38.159 358.333,40 C358.333,41.841 356.841,43.333 355,43.333 z" fill="#294270"/>
    <path d="M255,43.333 C253.159,43.333 251.667,41.841 251.667,40 C251.667,38.159 253.159,36.667 255,36.667 C256.841,36.667 258.333,38.159 258.333,40 C258.333,41.841 256.841,43.333 255,43.333 z" fill="#294270"/>
    <path d="M255,143.333 C253.159,143.333 251.667,141.841 251.667,140 C251.667,138.159 253.159,136.667 255,136.667 C256.841,136.667 258.333,138.159 258.333,140 C258.333,141.841 256.841,143.333 255,143.333 z" fill="#294270"/>
    <g>
      <path d="M55.5,43.833 C53.659,43.833 52.167,42.341 52.167,40.5 C52.167,38.659 53.659,37.167 55.5,37.167 C57.341,37.167 58.833,38.659 58.833,40.5 C58.833,42.341 57.341,43.833 55.5,43.833 z" fill="#FDBC00"/>
      <path d="M55.5,43.833 C53.659,43.833 52.167,42.341 52.167,40.5 C52.167,38.659 53.659,37.167 55.5,37.167 C57.341,37.167 58.833,38.659 58.833,40.5 C58.833,42.341 57.341,43.833 55.5,43.833 z" fill-opacity="0" stroke="#F0801A" stroke-width="1.333"/>
    </g>
    <path d="M55,163.333 C53.159,163.333 51.667,161.841 51.667,160 C51.667,158.159 53.159,156.667 55,156.667 C56.841,156.667 58.333,158.159 58.333,160 C58.333,161.841 56.841,163.333 55,163.333 z" fill="#294270"/>
    <path d="M165,153.333 C163.159,153.333 161.667,151.841 161.667,150 C161.667,148.159 163.159,146.667 165,146.667 C166.841,146.667 168.333,148.159 168.333,150 C168.333,151.841 166.841,153.333 165,153.333 z" fill="#294270"/>
    <path d="M155,43.333 C153.159,43.333 151.667,41.841 151.667,40 C151.667,38.159 153.159,36.667 155,36.667 C156.841,36.667 158.333,38.159 158.333,40 C158.333,41.841 156.841,43.333 155,43.333 z" fill="#294270"/>
    <path d="M115,43.333 C113.159,43.333 111.667,41.841 111.667,40 C111.667,38.159 113.159,36.667 115,36.667 C116.841,36.667 118.333,38.159 118.333,40 C118.333,41.841 116.841,43.333 115,43.333 z" fill="#294270"/>
    <path d="M355,123.333 C353.159,123.333 351.667,121.841 351.667,120 C351.667,118.159 353.159,116.667 355,116.667 C356.841,116.667 358.333,118.159 358.333,120 C358.333,121.841 356.841,123.333 355,123.333 z" fill="#294270"/>
    <path d="M295,123.333 C293.159,123.333 291.667,121.841 291.667,120 C291.667,118.159 293.159,116.667 295,116.667 C296.841,116.667 298.333,118.159 298.333,120 C298.333,121.841 296.841,123.333 295,123.333 z" fill="#294270"/>
    <path d="M295,83.333 C293.159,83.333 291.667,81.841 291.667,80 C291.667,78.159 293.159,76.667 295,76.667 C296.841,76.667 298.333,78.159 298.333,80 C298.333,81.841 296.841,83.333 295,83.333 z" fill="#294270"/>
    <path d="M355,143.333 C353.159,143.333 351.667,141.841 351.667,140 C351.667,138.159 353.159,136.667 355,136.667 C356.841,136.667 358.333,138.159 358.333,140 C358.333,141.841 356.841,143.333 355,143.333 z" fill="#294270"/>
    <g>
      <path d="M295.5,103.833 C293.659,103.833 292.167,102.341 292.167,100.5 C292.167,98.659 293.659,97.167 295.5,97.167 C297.341,97.167 298.833,98.659 298.833,100.5 C298.833,102.341 297.341,103.833 295.5,103.833 z" fill="#FDBC00"/>
      <path d="M295.5,103.833 C293.659,103.833 292.167,102.341 292.167,100.5 C292.167,98.659 293.659,97.167 295.5,97.167 C297.341,97.167 298.833,98.659 298.833,100.5 C298.833,102.341 297.341,103.833 295.5,103.833 z" fill-opacity="0" stroke="#F0801A" stroke-width="1.333"/>
    </g>
  </g>
</svg>
